<?xml version="1.0" encoding="utf-8"?>
<mxfile host="app.diagrams.net">
  <diagram name="BMC Detailed Architecture" id="detailed">
    <mxGraphModel dx="3200" dy="2400" grid="1" gridSize="10">
      <root>
        <mxCell id="0" />
  
        <mxCell id="1" parent="0" />
  
        <mxCell id="2" value="BMC_INPUT - Detailed AWS Architecture\nBMC Bolsa Comisionista - 60M Products, 10K Invoices/hour" style="rounded=0;whiteSpace=wrap;html=1;fillColor=#232F3E;fontColor=#FFFFFF;fontSize=16;fontStyle=1;" vertex="1" parent="1">
    <mxGeometry x="50" y="20" width="2800" height="70" as="geometry" />
  </mxCell>
  
        <mxCell id="3" value="BMC Users\n10K Concurrent\nWeb + Mobile\nColombia" style="sketch=0;outlineConnect=0;fontColor=#232F3E;gradientColor=none;fillColor=#4CAF50;strokeColor=#2E7D32;dashed=0;verticalLabelPosition=bottom;verticalAlign=top;align=center;html=1;fontSize=11;fontStyle=1;aspect=fixed;pointerEvents=1;shape=mxgraph.aws4.users;" vertex="1" parent="1">
    <mxGeometry x="100" y="120" width="90" height="90" as="geometry" />
  </mxCell>
  
        <mxCell id="4" value="Internet\nHTTPS/TLS 1.3\nGlobal CDN\nLatency &lt; 50ms" style="sketch=0;outlineConnect=0;fontColor=#232F3E;gradientColor=#1976D2;gradientDirection=north;fillColor=#0D47A1;strokeColor=#0277BD;dashed=0;verticalLabelPosition=bottom;verticalAlign=top;align=center;html=1;fontSize=11;fontStyle=1;aspect=fixed;pointerEvents=1;shape=mxgraph.aws4.internet_gateway;" vertex="1" parent="1">
    <mxGeometry x="350" y="120" width="90" height="90" as="geometry" />
  </mxCell>
  
        <mxCell id="5" value="AWS Cloud - us-east-1 (N. Virginia)\nProduction Environment - 99.99% SLA" style="fillColor=#E3F2FD;strokeColor=#1976D2;strokeWidth=3;dashed=1;verticalAlign=top;fontStyle=1;fontColor=#1976D2;whiteSpace=wrap;html=1;fontSize=14;" vertex="1" parent="1">
    <mxGeometry x="50" y="250" width="2700" height="1800" as="geometry" />
  </mxCell>
  
        <mxCell id="6" value="Edge &amp; CDN Layer\nGlobal Distribution - 200+ Edge Locations" style="fillColor=#FFEBEE;strokeColor=#F44336;strokeWidth=2;dashed=1;verticalAlign=top;fontStyle=1;fontColor=#C62828;whiteSpace=wrap;html=1;fontSize=12;" vertex="1" parent="5">
    <mxGeometry x="100" y="80" width="800" height="200" as="geometry" />
  </mxCell>
  
        <mxCell id="7" value="CloudFront CDN\nGlobal Edge Caching\nSSL/TLS Termination\nGZIP Compression\nCache TTL: 24h" style="sketch=0;points=[[0,0,0],[0.25,0,0],[0.5,0,0],[0.75,0,0],[1,0,0],[0,1,0],[0.25,1,0],[0.5,1,0],[0.75,1,0],[1,1,0],[0,0.25,0],[0,0.5,0],[0,0.75,0],[1,0.25,0],[1,0.5,0],[1,0.75,0]];outlineConnect=0;fontColor=#232F3E;gradientColor=#945DF2;gradientDirection=north;fillColor=#5A30B5;strokeColor=#4527A0;strokeWidth=2;dashed=0;verticalLabelPosition=bottom;verticalAlign=top;align=center;html=1;fontSize=10;fontStyle=1;aspect=fixed;shape=mxgraph.aws4.resourceIcon;resIcon=mxgraph.aws4.cloudfront;" vertex="1" parent="6">
    <mxGeometry x="50" y="80" width="100" height="100" as="geometry" />
  </mxCell>
  
        <mxCell id="8" value="AWS WAF\nDDoS Protection\nSQL Injection Block\nXSS Prevention\nRate Limiting: 1000/min" style="sketch=0;points=[[0,0,0],[0.25,0,0],[0.5,0,0],[0.75,0,0],[1,0,0],[0,1,0],[0.25,1,0],[0.5,1,0],[0.75,1,0],[1,1,0],[0,0.25,0],[0,0.5,0],[0,0.75,0],[1,0.25,0],[1,0.5,0],[1,0.75,0]];outlineConnect=0;fontColor=#232F3E;gradientColor=#F54749;gradientDirection=north;fillColor=#C7131F;strokeColor=#B71C1C;strokeWidth=2;dashed=0;verticalLabelPosition=bottom;verticalAlign=top;align=center;html=1;fontSize=10;fontStyle=1;aspect=fixed;shape=mxgraph.aws4.resourceIcon;resIcon=mxgraph.aws4.waf;" vertex="1" parent="6">
    <mxGeometry x="200" y="80" width="100" height="100" as="geometry" />
  </mxCell>
  
        <mxCell id="9" value="Route 53\nDNS Management\nHealth Checks\nFailover Routing\nLatency-based" style="sketch=0;points=[[0,0,0],[0.25,0,0],[0.5,0,0],[0.75,0,0],[1,0,0],[0,1,0],[0.25,1,0],[0.5,1,0],[0.75,1,0],[1,1,0],[0,0.25,0],[0,0.5,0],[0,0.75,0],[1,0.25,0],[1,0.5,0],[1,0.75,0]];outlineConnect=0;fontColor=#232F3E;gradientColor=#945DF2;gradientDirection=north;fillColor=#5A30B5;strokeColor=#4527A0;strokeWidth=2;dashed=0;verticalLabelPosition=bottom;verticalAlign=top;align=center;html=1;fontSize=10;fontStyle=1;aspect=fixed;shape=mxgraph.aws4.resourceIcon;resIcon=mxgraph.aws4.route_53;" vertex="1" parent="6">
    <mxGeometry x="350" y="80" width="100" height="100" as="geometry" />
  </mxCell>
  
        <mxCell id="10" value="VPC 10.0.0.0/16\nBMC Production Environment\nDHCP Options Set\nFlow Logs Enabled\nDNS Resolution: Enabled" style="fillColor=#F5F5F5;strokeColor=#666666;strokeWidth=2;dashed=1;verticalAlign=top;fontStyle=1;fontColor=#424242;whiteSpace=wrap;html=1;fontSize=12;" vertex="1" parent="5">
    <mxGeometry x="100" y="320" width="2400" height="1400" as="geometry" />
  </mxCell>
  
        <mxCell id="11" value="Availability Zone us-east-1a\nPrimary AZ - Active\nLatency: &lt; 1ms intra-AZ" style="fillColor=#E8F5E8;strokeColor=#4CAF50;strokeWidth=2;dashed=1;verticalAlign=top;fontStyle=1;fontColor=#2E7D32;whiteSpace=wrap;html=1;fontSize=11;" vertex="1" parent="10">
    <mxGeometry x="50" y="80" width="1100" height="1200" as="geometry" />
  </mxCell>

      </root>
    </mxGraphModel>
  </diagram>
</mxfile>
